inDegrees=yes
name=ik_S51_A13_T02
DataType=double
version=3
OpenSimVersion=4.3-2021-08-27-4bc7ad9
endheader
time	pelvis_tilt	pelvis_list	pelvis_rotation	pelvis_tx	pelvis_ty	pelvis_tz	hip_flexion_r	hip_adduction_r	hip_rotation_r	knee_angle_r	knee_angle_r_beta	ankle_angle_r	subtalar_angle_r	mtp_angle_r	hip_flexion_l	hip_adduction_l	hip_rotation_l	knee_angle_l	knee_angle_l_beta	ankle_angle_l	subtalar_angle_l	mtp_angle_l	lumbar_extension	lumbar_bending	lumbar_rotation	arm_flex_r	arm_add_r	arm_rot_r	elbow_flex_r	pro_sup_r	wrist_flex_r	wrist_dev_r	arm_flex_l	arm_add_l	arm_rot_l	elbow_flex_l	pro_sup_l	wrist_flex_l	wrist_dev_l
6.639999999999946	-25.89380562784535	-35.64148264952581	-18.87611439913977	0	0.9399999999999999	0	45.69120202282515	-10.02969710045099	-9.44320872019231	54.79168700181944	0.9562953409039295	0	0	0	45.69120202282515	-10.02969710045099	-9.44320872019231	54.79168700181944	0.9562953409039295	0	0	0	23.03130598827684	42.86462203621601	25.81446469690166	70.27203355793637	-41.59875003408666	18.70195864787835	162.6951788058007	9.004487985501871	0	0	78.09804848539555	-8.92100640312546	7.122330038963812	19.25147362320251	97.11296802597911	0	0
6.659999999999946	-25.89013713650088	-35.59020846162296	-18.82463327578779	0	0.9399999999999999	0	45.69080188744515	-10.02963751002296	-9.443927318797222	54.79176836495174	0.9562967609584779	0	0	0	45.69080188744515	-10.02963751002296	-9.443927318797222	54.79176836495174	0.9562967609584779	0	0	0	22.94841355987733	42.84230536702954	25.70133546169743	68.89375039867149	-41.99266391140129	18.2851716593633	165.0555928404762	8.735668772987184	0	0	78.48285368255858	-9.439052997957472	6.430256955938813	18.63201699622675	97.40425850453892	0	0
6.679999999999946	-25.88637469974039	-35.53013317831605	-18.75543012526232	0	0.9399999999999999	0	45.69023658173255	-10.02955366171665	-9.444940650453123	54.79188327980368	0.9562987666010038	0	0	0	45.69023658173255	-10.02955366171665	-9.444940650453123	54.79188327980368	0.9562987666010038	0	0	0	22.85277869052037	42.81029752364813	25.57873525335995	67.33791345559085	-42.57061536648646	17.70447406001769	167.2910946174087	8.690634317032782	0	0	78.87792643307354	-10.05556455473635	5.832900664669228	18.06762175256377	97.6117456734011	0	0
6.699999999999945	-25.88438027415251	-35.48314051757109	-18.71154362745368	0	0.9399999999999999	0	45.6898930375113	-10.02950278264159	-9.44555567369498	54.79195331948361	0.9562999890240255	0	0	0	45.6898930375113	-10.02950278264159	-9.44555567369498	54.79195331948361	0.9562999890240255	0	0	0	22.76027109957324	42.78013853963737	25.45706061790033	65.76294820210929	-43.23185938708714	16.96542001851798	169.2415954297038	8.651631114020082	0	0	79.2290006124706	-10.71669198056343	5.504171653426989	17.62513008026352	97.4146613362042	0	0
6.719999999999945	-25.84359569011086	-35.44040717347463	-18.63564387851884	0	0.9399999999999999	0	45.68918801297258	-10.02939843737568	-9.446818250402293	54.79209658871576	0.9563024895438432	0	0	0	45.68918801297258	-10.02939843737568	-9.446818250402293	54.79209658871576	0.9563024895438432	0	0	0	22.68887709984245	42.71246120891544	25.34144657766204	64.00271901672976	-43.98603762124294	15.76495547536931	171.7177369890706	8.198585163875437	0	0	79.55431767311701	-11.38817243800795	5.311696688773266	17.28904264593233	97.02198968532218	0	0
6.739999999999944	-25.8276632264732	-35.37090165732848	-18.56217593320853	0	0.9399999999999999	0	45.6884156190767	-10.02928449540922	-9.448199119041558	54.79225366677996	0.9563052310732462	0	0	0	45.6884156190767	-10.02928449540922	-9.448199119041558	54.79225366677996	0.9563052310732462	0	0	0	22.60267069536785	42.67701654995525	25.23342575059644	62.14458656759013	-44.78905860326849	14.4128044267952	174.3950080491842	7.246199681440708	0	0	79.9336905791188	-12.11923378657035	4.837633304660565	16.87306017255422	96.92049547606844	0	0
6.759999999999944	-25.88090298808157	-35.29438305855883	-18.53423780471899	0	0.9399999999999999	0	45.68795030071652	-10.02921561838076	-9.449032801524121	54.79234804720351	0.9563068783223867	0	0	0	45.68795030071652	-10.02921561838076	-9.449032801524121	54.79234804720351	0.9563068783223867	0	0	0	22.47693590173758	42.68614415341302	25.13397074053268	60.2253875435228	-45.60082929549518	13.24163096865443	177.2329354437361	6.553634941977203	0	0	80.09614747647736	-12.57589867666604	4.57845384562507	16.707294305959	96.59372857705235	0	0
6.779999999999943	-25.95916402601464	-35.2274089482253	-18.60836106956375	0	0.9399999999999999	0	45.68743711511194	-10.02914019051099	-9.449948631305634	54.79245244148088	0.9563087003462469	0	0	0	45.68743711511194	-10.02914019051099	-9.449948631305634	54.79245244148088	0.9563087003462469	0	0	0	22.38055817717846	42.73242192011601	25.10290272094573	58.42063480694092	-46.38506874633422	12.51268683718474	179.4991157338118	6.055335865531695	0	0	80.51243839331279	-13.33668129615295	3.818056011213374	16.2027543143422	96.23016585874004	0	0
6.799999999999943	-25.93754045863779	-35.16532903354344	-18.62452875191838	0	0.9399999999999999	0	45.68690002052563	-10.02906117760864	-9.450907890126913	54.79256150145071	0.9563106038018027	0	0	0	45.68690002052563	-10.02906117760864	-9.450907890126913	54.79256150145071	0.9563106038018027	0	0	0	22.32214882117283	42.7186297721293	25.00112902537366	56.81573187674643	-46.91749312994022	12.33410531338578	179.8670511386162	6.743947346364493	0	0	81.25031737511911	-14.58593580776038	2.922919815380187	15.4109112872434	96.26545863080545	0	0
6.819999999999943	-25.96008679820049	-35.08945589247868	-18.7107970237759	0	0.9399999999999999	0	45.68652602026903	-10.02900602670987	-9.451576914225338	54.79263727715023	0.9563119263372524	0	0	0	45.68652602026903	-10.02900602670987	-9.451576914225338	54.79263727715023	0.9563119263372524	0	0	0	22.25089381153838	42.73157710126694	24.92846756427077	57.47503075325206	-46.78707647147645	12.93943205076649	179.9032285726196	5.885114156419882	0	0	81.34586177760815	-15.1558614249593	2.766376568041782	15.26309896348548	95.08305801007944	0	0
6.839999999999942	-25.68709274079538	-34.69084769677838	-18.45934850345387	0	0.9399999999999999	0	45.67749293474795	-10.02811677079601	-9.464162727445071	54.79504091456335	0.9563538777241354	0	0	0	45.67749293474795	-10.02811677079601	-9.464162727445071	54.79504091456335	0.9563538777241354	0	0	0	22.07913295697353	42.38389225953017	24.77733668188061	51.97865688343612	-48.44899671440778	13.11976030451422	179.9588547692041	9.327301563660233	0	0	81.87504469394811	-16.22746037984792	1.686420632693463	14.4894057060521	94.76042204002678	0	0
6.859999999999942	-25.69439355185922	-34.58764984736186	-18.608698848323	0	0.9399999999999999	0	45.67709746361619	-10.02805944766136	-9.464863603928162	54.7951210361329	0.9563552761093259	0	0	0	45.67709746361619	-10.02805944766136	-9.464863603928162	54.7951210361329	0.9563552761093259	0	0	0	22.02070768132965	42.42344491101036	24.71009020277202	52.09325595399602	-48.26395482018992	13.35935528336967	179.9589751739144	9.223679248470487	0	0	82.49859572017908	-17.33198927277026	0.2962191242735724	13.3839609854331	95.17208527199313	0	0
6.879999999999941	-25.65830564489663	-34.48470163823389	-18.62072446386574	0	0.9399999999999999	0	45.67539032710539	-10.02787146950682	-9.467399101801867	54.79555205742349	0.9563627988499928	0	0	0	45.67539032710539	-10.02787146950682	-9.467399101801867	54.79555205742349	0.9563627988499928	0	0	0	21.97592182963018	42.3810222021534	24.67245114302942	51.17819573899745	-48.97131608747664	14.08843396772791	179.9687261804886	10.1759008439537	0	0	83.7270636995847	-18.69690929143266	-2.253242960213633	11.4583729710022	97.40893869213865	0	0
6.899999999999941	-25.5612804157295	-34.32555501437058	-18.62487012717479	0	0.9399999999999999	0	45.67500899729238	-10.02781681247668	-9.468070406896715	54.79562979182482	0.956364155571238	0	0	0	45.67500899729238	-10.02781681247668	-9.468070406896715	54.79562979182482	0.956364155571238	0	0	0	21.87917285505549	42.40776026287929	24.4207108197017	49.92173968963568	-49.29800427982395	14.47460407377076	179.9721202965136	10.64132448711304	0	0	83.989885462492	-19.83382120752041	-2.758326735135495	11.08572248961416	97.72515318046794	0	0
6.91999999999994	-25.40367183856647	-34.24050762864483	-18.436387464648	0	0.9399999999999999	0	45.6745501223336	-10.02775090599668	-9.468879544505992	54.79572302609229	0.9563657828161811	0	0	0	45.6745501223336	-10.02775090599668	-9.468879544505992	54.79572302609229	0.9563657828161811	0	0	0	21.82737738200388	42.32470613599863	24.16864875312926	48.47740344820764	-49.74872102606795	14.05526007860947	179.9744695472043	10.1500701299634	0	0	84.2650320281421	-20.97145316833025	-2.555782003968107	11.35695227571301	97.66671333081895	0	0
6.93999999999994	-25.30407133253053	-34.19990039917958	-18.29573860439701	0	0.9399999999999999	0	45.67406377610481	-10.02768133301267	-9.46973508063806	54.79582208492664	0.9563675117189938	0	0	0	45.67406377610481	-10.02768133301267	-9.46973508063806	54.79582208492664	0.9563675117189938	0	0	0	21.79414972408197	42.25164347709221	24.02381455451161	47.13072956837339	-50.2038716988479	13.20577295515559	179.9759692442847	9.287488786406543	0	0	84.42507515237699	-21.49003040566142	-2.279593359052293	11.38054295810395	97.33829100274714	0	0
6.95999999999994	-25.18924088908517	-34.15679073711459	-18.09545910988066	0	0.9399999999999999	0	45.67352423838872	-10.02760454632703	-9.470681228965555	54.79593235697041	0.9563694363292304	0	0	0	45.67352423838872	-10.02760454632703	-9.470681228965555	54.79593235697041	0.9563694363292304	0	0	0	21.75629603216602	42.15678415795316	23.85107596670943	46.00135812038402	-50.54601411650196	12.25492451090427	179.9768734738352	8.300863375471165	0	0	84.49766507063887	-22.1032875224556	-2.21722672851224	11.80692253425654	96.90498032738194	0	0
6.979999999999939	-25.05171859321178	-34.125508033621	-17.8476124852811	0	0.9399999999999999	0	45.67301833252547	-10.02753275548143	-9.471566967590348	54.79603587855237	0.9563712431216825	0	0	0	45.67301833252547	-10.02753275548143	-9.471566967590348	54.79603587855237	0.9563712431216825	0	0	0	21.73156290856005	42.03709646772724	23.66758226146369	45.02870240123718	-50.72798460695359	11.24863725353164	179.977556473587	7.599611673181652	0	0	84.46405844157458	-22.62232375965411	-2.135916949575242	12.41157760939431	96.41254323598071	0	0
